<?xml version="1.0" encoding="UTF-8" standalone="no"?>
<svg
   version="1.1"
   id="svg1"
   width="794"
   height="794"
   viewBox="0 0 794 794"
   sodipodi:docname="PIB.svg"
   inkscape:version="1.4.2 (f4327f4, 2025-05-13)"
   xmlns:inkscape="http://www.inkscape.org/namespaces/inkscape"
   xmlns:sodipodi="http://sodipodi.sourceforge.net/DTD/sodipodi-0.dtd"
   xmlns="http://www.w3.org/2000/svg"
   xmlns:svg="http://www.w3.org/2000/svg">
  <sodipodi:namedview
     id="namedview1"
     pagecolor="#ffffff"
     bordercolor="#000000"
     borderopacity="0.25"
     inkscape:showpageshadow="2"
     inkscape:pageopacity="0.0"
     inkscape:pagecheckerboard="0"
     inkscape:deskcolor="#d1d1d1"
     showgrid="false"
     inkscape:zoom="0.5"
     inkscape:cx="476"
     inkscape:cy="369"
     inkscape:window-width="1366"
     inkscape:window-height="697"
     inkscape:window-x="-8"
     inkscape:window-y="-8"
     inkscape:window-maximized="1"
     inkscape:current-layer="g1" />
  <defs
     id="defs1" />
  <g
     id="g1">
    <g
       id="g4">
      <path
         style="fill:none;stroke:#000000;stroke-width:10.5;stroke-linejoin:round;stroke-dasharray:none"
         d="M 194.18026,209.98482 309.18272,183.15091 297.33427,535.41081 178.74401,522.5353 Z"
         id="path11" />
      <path
         id="path14"
         style="fill:none;stroke:#000000;stroke-width:10.5;stroke-linejoin:round;stroke-dasharray:none"
         d="m 242.14614,198.79212 -17.75885,4.14453 -4.27172,88.90465 -30.15406,3.56377 -0.70796,14.31268 30.15166,-3.0766 -10.53052,219.16587 16.85412,1.82868 11.12088,-222.77523 68.47477,-6.98596 0.54237,-16.16535 -68.26359,8.06587 z" />
      <path
         id="path15"
         style="fill:none;stroke:#000000;stroke-width:10.5;stroke-linejoin:round;stroke-dasharray:none"
         d="m 192.19816,250.096 -25.0568,1.68722 -12.1144,235.85186 12.71198,0.14399 10.34402,-210.18726 12.79049,-0.69435 h 0.002 z" />
      <path
         id="path17"
         style="fill:none;stroke:#000000;stroke-width:10.5;stroke-linejoin:round;stroke-dasharray:none"
         d="m 553.82845,290.09902 -249.45192,35.90648 -0.56156,16.74852 249.6751,-30.97001 8.46904,12.19842 -0.25987,-23.1077 z" />
      <path
         style="fill:none;stroke:#000000;stroke-width:10.5;stroke-linejoin:round;stroke-dasharray:none"
         d="m 326.91804,339.88828 14.1252,9.16643 -1.35531,151.4932 -16.65705,13.71104 z"
         id="path18" />
      <path
         style="fill:none;stroke:#000000;stroke-width:10.5;stroke-linejoin:round;stroke-dasharray:none"
         d="m 341.04324,349.05471 220.91587,-25.07228 -8.46904,-12.19842 -226.57203,28.10427 z"
         id="path19" />
      <path
         style="fill:none;stroke:#000000;stroke-width:10.5;stroke-linejoin:round;stroke-dasharray:none"
         d="m 308.37764,207.08631 34.2015,8.4754 213.02524,-57.81223 9.17203,215.38619"
         id="path20" />
      <path
         style="fill:none;stroke:#000000;stroke-width:10.5;stroke-linejoin:round;stroke-dasharray:none"
         d="m 307.71659,234.42284 36.94049,5.14667 183.8824,-41.77726 2.17033,95.6345 -226.33328,32.57875 z"
         id="path21" />
      <path
         style="fill:none;stroke:#000000;stroke-width:10.5;stroke-linejoin:round;stroke-dasharray:none"
         d="m 558.85488,234.08094 61.79286,96.33843 -0.20411,42.78165"
         id="path22" />
      <path
         style="fill:#000000;stroke:#000000;stroke-width:10.5;stroke-linejoin:round;stroke-dasharray:none"
         d="m 297.33427,535.41081 v 0 l 42.35366,-34.8629"
         id="path23" />
      <path
         style="fill:#000000;stroke:#000000;stroke-width:10.5;stroke-linejoin:round;stroke-dasharray:none"
         d="m 155.02696,487.63508 25.49675,0.80504"
         id="path24" />
    </g>
    <g
       id="g3"
       transform="translate(6,6)">
      <path
         style="font-size:126.046px;font-family:'TAN - HEADLINE';-inkscape-font-specification:'TAN - HEADLINE';fill:#000000;stroke-width:110.291"
         d="m 355.40956,519.53871 q 2.63287,-2.32313 4.02675,-7.89865 1.39388,-5.73038 1.39388,-11.46077 V 389.44343 q 0,-5.88527 -1.39388,-11.46077 -1.39388,-5.57552 -4.02675,-7.89865 h 55.29049 q 19.82404,0 33.76282,7.12427 13.93878,6.96939 21.37279,19.35942 7.43402,12.39003 7.43402,28.34218 0,11.46078 -3.87188,21.83742 -3.87189,10.22178 -10.99615,18.12041 -6.96939,7.89865 -16.72653,12.54491 -9.75715,4.49138 -21.68255,4.49138 -2.16826,0 -4.33651,-0.61949 -2.16825,-0.61951 -3.56214,-1.39389 l -16.41678,-37.6347 v 58.07825 q 0,5.73039 1.39388,11.30589 1.39388,5.57552 4.02676,7.89865 z m 57.92337,-120.02838 h -17.65579 v 36.86033 q 3.40726,7.58888 8.05352,11.77052 4.64626,4.18164 12.85465,4.18164 7.58889,0 12.39003,-3.71702 4.80113,-3.87188 7.12426,-10.06689 2.32313,-6.34988 2.32313,-13.62903 0,-6.50477 -2.78776,-12.23515 -2.63288,-5.88527 -8.20838,-9.4474 -5.57552,-3.717 -14.09366,-3.717 z m 66.13186,120.02838 q 2.63288,-2.32313 4.02675,-7.89865 1.39389,-5.73038 1.39389,-11.46077 V 389.44343 q 0,-5.88527 -1.39389,-11.46077 -1.39387,-5.57552 -4.02675,-7.89865 h 45.68823 q -2.63288,2.32313 -4.02677,7.89865 -1.39387,5.42064 -1.39387,11.30589 v 111.04562 q 0,5.73039 1.39387,11.30589 1.39389,5.57552 4.02677,7.89865 z m 57.30373,-130.25016 q 0,-5.88525 -1.39388,-11.30589 -1.39387,-5.57552 -4.02675,-7.89865 h 72.94628 q 7.89865,0 15.48753,2.47801 7.58889,2.478 13.62904,7.27914 6.04013,4.80113 9.60226,11.77052 3.56214,6.81452 3.56214,15.64241 0,11.46077 -6.34989,20.28868 -6.19502,8.67301 -16.41678,12.08026 5.11087,0 10.53151,2.01338 5.42064,1.85851 10.0669,6.19502 4.80114,4.33651 7.74376,11.3059 2.94264,6.96939 2.94264,16.72654 0,11.3059 -6.04014,21.3728 -6.04014,9.91201 -18.58504,16.10703 -12.39003,6.19501 -31.43969,6.19501 h -67.68052 q 2.63288,-2.32313 4.02675,-7.89865 1.39388,-5.5755 1.39388,-11.30589 z m 61.48552,65.51227 h -26.63857 v 35.62133 h 26.63857 q 11.46077,0 16.72652,-5.11089 5.26577,-5.11088 5.26577,-12.69978 0,-7.74377 -5.26577,-12.69977 -5.26575,-5.11089 -16.72652,-5.11089 z m -26.63857,-55.60024 v 27.87756 h 24.78005 q 6.3499,0 10.53153,-4.02677 4.33651,-4.18163 4.33651,-9.91201 0,-5.73039 -4.33651,-9.75715 -4.18163,-4.18163 -10.53153,-4.18163 z"
         id="text1"
         aria-label="PIB" />
      <path
         style="font-size:87.0365px;font-family:'TAN - HEADLINE';-inkscape-font-specification:'TAN - HEADLINE';fill:#000000;stroke-width:76.1573"
         d="m 210.55651,652.29346 q -11.65685,0 -21.06788,-4.17079 -9.41103,-4.1708 -16.14847,-11.44296 -6.73745,-7.3791 -10.37353,-17.00403 -3.52914,-9.62491 -3.52914,-20.6401 0,-11.01519 3.52914,-20.64011 3.63608,-9.62492 10.37353,-16.89708 6.73744,-7.3791 16.14847,-11.44296 9.41103,-4.1708 21.06788,-4.1708 11.44297,0 21.06788,3.20831 9.62492,3.20831 15.82765,10.05269 -1.39026,3.31526 -2.67359,6.84439 -1.17638,3.52913 -2.13887,6.52356 -0.96249,2.99442 -1.60416,4.91941 -0.53471,1.81804 -0.53471,1.81804 0,0 -1.49721,-1.92499 -1.39027,-2.03192 -4.59857,-4.49163 -3.10137,-2.56665 -8.02077,-4.49164 -4.91941,-2.03192 -11.87074,-2.03192 -8.23465,0 -15.29293,3.63608 -7.05827,3.63608 -11.44295,10.90824 -4.27774,7.27217 -4.27774,18.28735 0,10.90825 4.27774,18.18041 4.38468,7.16521 11.44295,10.8013 7.05828,3.63608 15.29293,3.63608 6.95133,0 11.87074,-1.92499 4.9194,-2.03192 8.02077,-4.49162 3.2083,-2.56665 4.59857,-4.49164 1.49721,-2.03193 1.49721,-2.03193 0,0 0.53471,1.92499 0.64167,1.81804 1.60416,4.81246 0.96249,2.99442 2.13887,6.52356 1.28333,3.52913 2.67359,6.84438 -6.20273,6.84439 -15.82765,10.15964 -9.62491,3.2083 -21.06788,3.2083 z m 76.35767,0 q -10.80129,0 -19.03594,-4.81245 -8.12772,-4.91941 -12.72629,-13.68878 -4.49163,-8.87631 -4.49163,-20.53316 0,-11.76379 4.49163,-20.53317 4.59857,-8.76936 12.72629,-13.58182 8.23465,-4.91941 19.03594,-4.91941 10.90826,0 19.03596,4.91941 8.23465,4.81246 12.72628,13.58182 4.59857,8.76938 4.59857,20.53317 0,11.65685 -4.59857,20.53316 -4.49163,8.76937 -12.72628,13.68878 -8.1277,4.81245 -19.03596,4.81245 z m -13.7957,-38.92744 q 0,8.44853 3.63608,13.58182 3.74301,5.1333 10.15962,5.1333 6.41662,0 10.15965,-5.1333 3.74302,-5.13329 3.74302,-13.58182 0,-8.55549 -3.74302,-13.68878 -3.74303,-5.13329 -10.15965,-5.13329 -6.41661,0 -10.15962,5.13329 -3.63608,5.13329 -3.63608,13.68878 z m 49.08711,-27.16367 q 3.95692,-0.21388 8.44855,-1.39027 4.59857,-1.28331 8.98325,-3.10135 4.49164,-1.92499 8.3416,-3.84998 3.95691,-2.03192 6.6305,-3.63608 v 20.96094 q 0.74861,-3.52914 2.35276,-7.16522 1.71109,-3.74302 4.1708,-6.84439 2.56665,-3.10136 5.98883,-5.02634 3.4222,-1.92499 7.593,-1.92499 3.2083,0 6.20272,1.28333 3.10137,1.17638 4.17081,2.56664 -1.49721,4.9194 -2.88748,10.58742 -1.39026,5.668 -2.24582,11.01518 -1.28331,-2.24582 -5.24023,-3.84997 -3.95691,-1.71109 -8.12771,-1.71109 -11.97768,0 -11.97768,9.09019 v 34.11499 q 0,3.95693 0.96249,7.91384 0.96249,3.84996 2.78053,5.45412 h -29.40948 q 1.81804,-1.60416 2.78054,-5.45412 0.96249,-3.84998 0.96249,-7.80689 V 602.03 q 0,-1.17638 -0.21388,-3.63608 -0.21389,-2.4597 -1.17638,-5.13329 -0.96249,-2.6736 -3.10137,-4.59857 -2.13887,-1.92499 -5.98884,-1.92499 z m 86.41024,66.09111 q -6.30966,0 -10.90824,-3.52913 -4.49164,-3.52913 -7.48605,-9.30409 -2.88747,-5.77496 -4.27775,-12.61934 -1.39026,-6.84439 -1.39026,-13.58183 0,-6.95133 1.7111,-13.79572 1.7111,-6.95133 5.45412,-12.61933 3.74302,-5.77495 9.73186,-9.19715 6.09578,-3.4222 14.75821,-3.4222 3.95691,0 6.95133,1.17638 2.99443,1.06944 5.34718,2.88748 v -8.3416 q 0,-1.17638 -0.21388,-3.63608 -0.2139,-2.4597 -1.17639,-5.13329 -0.96248,-2.67358 -3.10135,-4.59857 -2.13887,-1.92499 -5.98885,-1.92499 v -0.53471 q 3.95691,-0.21389 8.44854,-1.39028 4.59857,-1.28331 8.98326,-3.10135 4.49163,-1.92499 8.3416,-3.84997 3.95691,-2.03193 6.6305,-3.63608 v 95.39365 q 0,3.95691 0.96249,7.80687 0.9625,3.74303 2.78054,5.34719 h -25.66646 v -23.95536 l -8.3416,21.38871 q -1.92499,1.92499 -4.9194,2.99441 -2.88747,1.17638 -6.6305,1.17638 z m -2.35275,-37.1094 q 0,16.79013 10.05269,16.79013 4.59857,0 7.48604,-2.56665 2.88748,-2.67358 4.70552,-6.30966 v -29.19559 q -2.56665,-0.74861 -5.66801,-0.74861 -5.45412,0 -9.19715,3.20831 -3.63608,3.20831 -5.56105,8.23466 -1.81804,5.02634 -1.81804,10.58741 z m 90.26037,37.1094 q -9.41103,0 -16.4693,-3.10135 -6.95133,-3.10137 -11.5499,-8.44855 -4.49164,-5.45412 -6.73745,-12.51239 -2.24582,-7.05828 -2.24582,-14.9721 0,-7.91382 2.35276,-14.9721 2.35276,-7.05828 7.05827,-12.40545 4.81247,-5.45412 11.87073,-8.55548 7.16523,-3.10137 16.79014,-3.10137 8.12772,0 14.2235,3.4222 6.09578,3.31525 9.41103,8.66242 3.4222,5.24024 3.4222,10.90825 0,5.34717 -2.88748,10.37352 -2.78054,5.02635 -9.30409,8.23466 -6.41661,3.10136 -17.4318,3.10136 h -12.51239 q 1.28332,5.66801 5.13329,8.87632 3.84996,3.2083 9.83881,3.2083 3.95691,0 6.73744,-1.60416 2.88747,-1.60414 4.70551,-3.63608 1.92499,-2.13887 2.6736,-3.52913 2.67358,4.1708 6.30966,8.12771 3.63608,3.84997 6.95133,6.84439 -4.70551,7.48604 -12.40545,11.33602 -7.59299,3.74301 -15.93459,3.74301 z m -14.22348,-34.54275 q 5.13328,-0.9625 9.94574,-3.31527 4.81246,-2.4597 7.91382,-6.09578 3.20832,-3.63608 3.20832,-8.23465 0,-2.13887 -1.49723,-4.17079 -1.4972,-2.03193 -4.91939,-2.03193 -3.10136,0 -6.63051,2.24581 -3.42219,2.13887 -5.88188,6.52356 -2.45971,4.27774 -2.45971,10.58741 0,2.35276 0.32084,4.49164 z m 40.42456,-31.54836 q 3.95692,-0.21388 8.44854,-1.39027 4.59857,-1.28331 8.98326,-3.10135 4.49163,-1.92499 8.34159,-3.84998 3.95691,-2.03192 6.63051,-3.63608 v 63.09669 q 0,3.95693 0.9625,7.91384 0.96248,3.84996 2.78052,5.45412 h -29.40947 q 1.81804,-1.60416 2.78053,-5.45412 0.96248,-3.84998 0.96248,-7.80689 V 602.03 q 0,-1.17638 -0.21388,-3.63608 -0.21388,-2.4597 -1.17638,-5.13329 -0.96249,-2.6736 -3.10136,-4.59857 -2.13887,-1.92499 -5.98884,-1.92499 z m 21.81648,-17.11096 q -3.95691,0 -7.16521,-1.92499 -3.20831,-1.92499 -5.13329,-5.13329 -1.92498,-3.31525 -1.92498,-7.16522 0,-3.95692 1.92498,-7.16522 1.92498,-3.31524 5.13329,-5.24023 3.2083,-1.92499 7.16521,-1.92499 3.95691,0 7.16523,1.92499 3.31524,1.92499 5.24023,5.24023 1.92498,3.2083 1.92498,7.16522 0,3.84997 -1.92498,7.16522 -1.92499,3.2083 -5.24023,5.13329 -3.20832,1.92499 -7.16523,1.92499 z m 12.19169,17.11096 q 3.95691,-0.21388 8.44854,-1.39027 4.59857,-1.28331 8.98326,-3.10135 4.49162,-1.92499 8.3416,-3.84998 3.95691,-2.03192 6.6305,-3.63608 v 20.96094 q 0.74861,-3.52914 2.35275,-7.16522 1.71111,-3.74302 4.17081,-6.84439 2.56664,-3.10136 5.98883,-5.02634 3.4222,-1.92499 7.59299,-1.92499 3.20832,0 6.20273,1.28333 3.10137,1.17638 4.1708,2.56664 -1.49721,4.9194 -2.88747,10.58742 -1.39028,5.668 -2.24582,11.01518 -1.28333,-2.24582 -5.24024,-3.84997 -3.95691,-1.71109 -8.1277,-1.71109 -11.97768,0 -11.97768,9.09019 v 34.11499 q 0,3.95693 0.96249,7.91384 0.96249,3.84996 2.78053,5.45412 h -29.40948 q 1.81804,-1.60416 2.78054,-5.45412 0.96249,-3.84998 0.96249,-7.80689 V 602.03 q 0,-1.17638 -0.21388,-3.63608 -0.2139,-2.4597 -1.17639,-5.13329 -0.96248,-2.6736 -3.10135,-4.59857 -2.13888,-1.92499 -5.98885,-1.92499 z m 98.06716,66.09111 q -10.8013,0 -19.03595,-4.81245 -8.12771,-4.91941 -12.72628,-13.68878 -4.49164,-8.87631 -4.49164,-20.53316 0,-11.76379 4.49164,-20.53317 4.59857,-8.76936 12.72628,-13.58182 8.23465,-4.91941 19.03595,-4.91941 10.90824,0 19.03595,4.91941 8.23465,4.81246 12.72629,13.58182 4.59857,8.76938 4.59857,20.53317 0,11.65685 -4.59857,20.53316 -4.49164,8.76937 -12.72629,13.68878 -8.12771,4.81245 -19.03595,4.81245 z m -13.79572,-38.92744 q 0,8.44853 3.63608,13.58182 3.74303,5.1333 10.15964,5.1333 6.41662,0 10.15963,-5.1333 3.74303,-5.13329 3.74303,-13.58182 0,-8.55549 -3.74303,-13.68878 -3.74301,-5.13329 -10.15963,-5.13329 -6.41661,0 -10.15964,5.13329 -3.63608,5.13329 -3.63608,13.68878 z"
         id="text2"
         aria-label="Cordeiro" />
      <path
         style="font-size:33.0225px;font-family:'TAN - HEADLINE';-inkscape-font-specification:'TAN - HEADLINE';fill:#000000;stroke-width:28.8948"
         d="m 620.10983,562.04197 q -2.39395,0 -4.1387,-1.339 -1.70416,-1.33899 -2.84027,-3.53005 -1.09554,-2.19108 -1.62302,-4.78791 -0.52749,-2.59683 -0.52749,-5.15308 0,-2.6374 0.64921,-5.23423 0.64921,-2.6374 2.06935,-4.7879 1.42014,-2.19107 3.69237,-3.48949 2.31279,-1.29841 5.5994,-1.29841 1.5013,0 2.63741,0.44633 1.13611,0.40575 2.02877,1.09554 v -3.16489 q 0,-0.44633 -0.0812,-1.37956 -0.0811,-0.93324 -0.44632,-1.94762 -0.36518,-1.01438 -1.17669,-1.74475 -0.8115,-0.73035 -2.27222,-0.73035 v -0.20288 q 1.50129,-0.0811 3.20545,-0.52748 1.74475,-0.48691 3.40834,-1.17669 1.70417,-0.73036 3.16489,-1.46071 1.50128,-0.77094 2.51567,-1.37957 v 36.19328 q 0,1.50129 0.36517,2.96201 0.36519,1.42014 1.05497,2.02877 h -9.7381 v -9.08889 l -3.16488,8.11508 q -0.73037,0.73036 -1.86648,1.13612 -1.09554,0.44633 -2.51567,0.44633 z m -0.89266,-14.07968 q 0,6.37034 3.81409,6.37034 1.74474,0 2.84028,-0.97381 1.09554,-1.01438 1.78532,-2.39395 v -11.07709 q -0.97381,-0.28403 -2.1505,-0.28403 -2.06935,0 -3.48949,1.21726 -1.37956,1.21726 -2.10992,3.12431 -0.68978,1.90705 -0.68978,4.01697 z m 33.96164,14.07968 q -4.09811,0 -7.22243,-1.82591 -3.08373,-1.86646 -4.82847,-5.19365 -1.70417,-3.36775 -1.70417,-7.79048 0,-4.46329 1.70417,-7.79049 1.74474,-3.32718 4.82847,-5.15307 3.12432,-1.86647 7.22243,-1.86647 4.13869,0 7.22242,1.86647 3.12432,1.82589 4.82848,5.15307 1.74475,3.3272 1.74475,7.79049 0,4.42273 -1.74475,7.79048 -1.70416,3.32719 -4.82848,5.19365 -3.08373,1.82591 -7.22242,1.82591 z m -5.23422,-14.76946 q 0,3.20545 1.37955,5.15307 1.42015,1.94762 3.85467,1.94762 2.43453,0 3.85467,-1.94762 1.42013,-1.94762 1.42013,-5.15307 0,-3.24603 -1.42013,-5.19365 -1.42014,-1.94762 -3.85467,-1.94762 -2.43452,0 -3.85467,1.94762 -1.37955,1.94762 -1.37955,5.19365 z"
         id="text3"
         aria-label="do" />
    </g>
  </g>
</svg>
